<?xml version="1.0" encoding="utf-8"?>
<!-- Generator: Adobe Illustrator 24.3.0, SVG Export Plug-In . SVG Version: 6.00 Build 0)  -->
<svg version="1.1" id="Ebene_1" xmlns="http://www.w3.org/2000/svg" xmlns:xlink="http://www.w3.org/1999/xlink" x="0px" y="0px"
	 viewBox="0 0 500 500" style="enable-background:new 0 0 500 500;" xml:space="preserve">
<style type="text/css">
	.st0{fill:#FFFFFF;}
	.st1{fill:#FF00FF;}
	.st2{fill:#00F8F8;}
	.st3{fill:#00FF00;}
</style>
<g>
	<path class="st0" d="M378.28,360.2c0-5.33-4.32-9.65-9.65-9.65c-5.33,0-9.65,4.32-9.65,9.65c0,5.33,4.32,9.65,9.65,9.65
		C373.95,369.85,378.28,365.53,378.28,360.2L378.28,360.2z M377.12,360.2c0,4.69-3.81,8.5-8.5,8.5c-4.7,0-8.5-3.81-8.5-8.5
		c0-4.7,3.8-8.5,8.5-8.5C373.32,351.7,377.12,355.5,377.12,360.2L377.12,360.2z"/>
	<polygon class="st1" points="250.47,220.2 311.79,175.65 288.36,96 212.57,96 189.15,175.65 250.47,220.2 	"/>
	<polygon class="st2" points="324.94,206.05 265.42,249.29 265.42,319.25 356.76,319.25 391.46,227.71 324.94,206.05 	"/>
	<polygon class="st3" points="174.53,206.05 108,227.71 142.71,319.25 234.04,319.25 234.04,249.29 174.53,206.05 	"/>
	<polygon class="st0" points="158.35,403.09 158.35,378.8 142,350.77 150.77,350.77 162.83,372.52 174.89,350.77 183.2,350.77 
		166.58,378.8 166.58,403.09 158.35,403.09 	"/>
	<path class="st0" d="M220.57,400.4c-2.41,1.79-6.38,2.69-11.92,2.69h-18.27v-52.32h17.18c5.42,0,9.39,0.9,11.92,2.69
		c2.53,1.79,3.79,4.78,3.79,8.97v4.26c0,3.84-1.68,6.73-5.02,8.67c3.96,1.79,5.94,4.86,5.94,9.2v6.73
		C224.17,395.57,222.97,398.61,220.57,400.4L220.57,400.4z M213.71,357.64c-1.07-0.85-2.76-1.27-5.07-1.27h-10.32v16.52h10.32
		c1.89,0,3.47-0.5,4.75-1.49c1.28-1,1.92-2.32,1.92-3.96v-5.68C215.31,359.86,214.78,358.49,213.71,357.64L213.71,357.64z
		 M214.4,379.95c-1.22-0.97-2.83-1.46-4.84-1.46h-11.24v18.99h11.14c2.32,0,4.02-0.43,5.12-1.31c1.1-0.87,1.64-2.25,1.64-4.15v-8.15
		C216.23,382.23,215.62,380.93,214.4,379.95L214.4,379.95z"/>
	<path class="st0" d="M243.15,381.41v21.68h-7.95v-52.32h17.18c5.18,0,9.09,0.93,11.74,2.8c2.65,1.87,3.98,4.82,3.98,8.86v7.18
		c0,5.63-2.74,9.14-8.22,10.54l12.7,22.95h-8.68l-11.78-21.68H243.15L243.15,381.41z M258.54,357.64c-1.07-0.85-2.76-1.27-5.07-1.27
		h-10.32v19.43h10.32c2.32,0,4.01-0.43,5.07-1.31c1.06-0.87,1.6-2.25,1.6-4.15v-8.6C260.14,359.86,259.6,358.49,258.54,357.64
		L258.54,357.64z"/>
	<polygon class="st0" points="288.79,397.63 288.79,356.22 280.57,356.22 280.57,350.77 304.96,350.77 304.96,356.22 296.74,356.22 
		296.74,397.63 304.96,397.63 304.96,403.09 280.57,403.09 280.57,397.63 288.79,397.63 	"/>
	<path class="st0" d="M347.29,400.4c-2.41,1.79-6.38,2.69-11.92,2.69h-18.82v-52.32h17.72c5.48,0,9.62,0.91,12.43,2.73
		c2.8,1.82,4.2,4.8,4.2,8.93v28.85C350.9,395.57,349.7,398.61,347.29,400.4L347.29,400.4z M341.12,357.83
		c-1.22-0.97-2.83-1.46-4.84-1.46H324.5v41.11h11.69c2.31,0,4.02-0.43,5.12-1.31c1.1-0.87,1.64-2.25,1.64-4.15v-30.27
		C342.95,360.11,342.34,358.8,341.12,357.83L341.12,357.83z"/>
	<path class="st0" d="M368.89,361.16l2.06,4.64h1.52l-2.22-4.91c0.96-0.3,1.44-1.05,1.44-2.26v-1.54c0-0.86-0.23-1.5-0.7-1.9
		c-0.46-0.4-1.15-0.6-2.06-0.6h-3.01v11.2h1.39v-4.64H368.89L368.89,361.16z M370.29,356.95v1.84c0,0.41-0.09,0.7-0.28,0.89
		c-0.19,0.19-0.48,0.28-0.89,0.28h-1.81v-4.16h1.81c0.41,0,0.7,0.09,0.89,0.27C370.2,356.25,370.29,356.55,370.29,356.95
		L370.29,356.95L370.29,356.95z"/>
</g>
</svg>
